<svg xmlns="http://www.w3.org/2000/svg" viewBox="0 0 650 200" width="650" height="200">
  <g transform="translate(11.24,16.97) scale(1.35)">
    <g transform="translate(-16.85,-22.85) scale(1.18)">
    <path fill="#2563EB" d="m73 39c-7.1 2.4-14.8 10.3-17 17.4-1.4 4.4-1.9 5-5.7 6.1-14.7 4.4-22 19.3-15.6 32 2.7 5.4 9.7 11.5 13.2 11.5 1.9 0-0.3-4.7-4.5-9.1-4.6-5-6.1-9.5-5-15.3 1.4-7.4 8-13.2 16.4-14.3 3.6-0.5 3.8-0.7 5.5-6.4 2.2-7.5 9.2-15.1 15.2-16.8 14.2-3.9 28.3 4.8 31 19.1 0.6 3.3 1 3.6 5.1 4.2 6 0.8 9.7 2.9 13 7.2 5.4 7 3.8 19.3-2.9 23.7-2.1 1.3-4.2 6.5-3.2 7.5 0.7 0.7 6.1-2.8 8.6-5.5 7.1-7.6 8.4-17.1 3.4-26.1-3.3-6.1-6.8-8.9-13.8-11.3-4.6-1.6-5.1-2-7.3-7.5-4.3-10.8-15.5-18.5-26.8-18.4-2.2 0.1-6.6 0.9-9.6 2z"/>
    <g fill="none" stroke="#0D1B2A" stroke-linecap="round" stroke-width="2.6">
      <path d="m83.2 69.05l-18.85 26"/>
      <path d="m83.2 69.05l18.85 26"/>
      <path d="m64.35 95.05h37.7"/>
    </g>
    <path fill="#2563EB" stroke="#0D1B2A" stroke-width="1.6" d="m83.2 61.9c-3.95 0-7.15 3.2-7.15 7.15 0 3.95 3.2 7.15 7.15 7.15 3.95 0 7.15-3.2 7.15-7.15 0-3.95-3.2-7.15-7.15-7.15z"/>
    <path fill="#38BDF8" stroke="#0D1B2A" stroke-width="1.6" d="m64.35 87.9c-3.95 0-7.15 3.2-7.15 7.15 0 3.95 3.2 7.15 7.15 7.15 3.95 0 7.15-3.2 7.15-7.15 0-3.95-3.2-7.15-7.15-7.15z"/>
    <path fill="#10B981" stroke="#0D1B2A" stroke-width="1.6" d="m102.05 87.9c-3.95 0-7.15 3.2-7.15 7.15 0 3.95 3.2 7.15 7.15 7.15 3.95 0 7.15-3.2 7.15-7.15 0-3.95-3.2-7.15-7.15-7.15z"/>
  </g>
  </g>
  <text x="230" y="94" font-family="Inter, Arial, sans-serif" font-weight="800" font-size="56" fill="#0D1B2A">CloudLab<tspan fill="#38BDF8"> JP</tspan></text>
  <text x="230" y="130" font-family="Inter, Arial, sans-serif" font-weight="600" font-size="19" letter-spacing="3" fill="#868d95">BUILD  •  AUTOMATE  •  SCALE</text>
</svg>